<?xml version="1.0" encoding="UTF-8"?>
<svg id="Calque_1" data-name="Calque 1" xmlns="http://www.w3.org/2000/svg" viewBox="0 0 180 180">
  <defs>
    <style>
      .cls-1 {
        fill: #184c3e;
      }
    </style>
  </defs>
  <g>
    <path class="cls-1" d="M34.19,18.09c2.17-.62,4.11-.1,4.3,2.32.38,4.77-12.17,17.32-3.03,19.95,12.09,3.49,23.11-24.67,40.08-14.34,11.92,7.26-11.52,18.66,5.9,28.85,16.64,9.73,35.46-17.25,49.35,1.29,12.25,16.35-11.68,21.64-2.01,39.74,9.14,17.13,20.31-7.54,29.82,4.93,8.46,11.09-7.62,23.2-12.71,31.98-1.89,3.25-6.13,11.28-2.74,14.26,7.18,6.3,13.17-8.43,18.1-8.85l2.39,1.3c1.46,1.43.55,2.45-.22,3.85-8.9,15.95-37.67,31.08-55.23,34.16C33.84,190.58-23.94,113.19,11.28,45.86c2.83-5.41,17.92-26.33,22.91-27.76ZM21.58,38.79c-1.43-1.69-5.42,5.72-5.83,6.57-.81,1.66-4.03,10.26-3.1,11.29,5.08.34,10.71-15.75,8.93-17.86ZM54.09,43.97c-7.57,1.5-15.83,14.53-6.96,19.47,11.77,2.84,23.21-22.68,6.96-19.47ZM89.41,92.1c10.34,11.17,31.26-7.09,20.58-19.09-10.73-12.05-31.11,7.72-20.58,19.09ZM127.55,120.44c-7.9,1.66-15.68,15.87-6.96,18.44,11.95,3.52,25.58-22.34,6.96-18.44ZM144.7,153.97c-3.48-1.38-19.8,8.97-16.87,11.9,3.27,1.32,19.02-9.9,16.87-11.9Z"/>
    <path class="cls-1" d="M99.76,20.16c17.7-2.84,28.85,17.84,10.68,19.62-17.07,1.67-25.95-17.17-10.68-19.62Z"/>
    <path class="cls-1" d="M144.96,59.9c4.75-4.45,11.41,1.67,13.86,5.98,3.17,5.59,4.98,19.98-3.66,19.64-9.5-.37-16.71-19.52-10.2-25.63Z"/>
    <path class="cls-1" d="M172.18,107.44c7.9-.72-1.63,24.48-7.7,23.23-8.01-1.65,1.12-22.63,7.7-23.23Z"/>
    <path class="cls-1" d="M45.41,19.92c-4-4.09,18.44-19.3,22.42-12.92,3.08,4.94-17.34,16.38-22.42,12.92Z"/>
    <path class="cls-1" d="M141.4,27.97c4.93-1.6,14.45,9.5,10.31,12.37-6.06,3.76-17.81-9.94-10.31-12.37Z"/>
    <path class="cls-1" d="M178.04,88.5c-.31.62-1.09.85-1.68.48-4.07-2.48-4.97-13.24-1.35-14.43,5.01-1.65,5.09,9.74,3.03,13.95Z"/>
  </g>
  <ellipse class="cls-1" cx="97.36" cy="4.79" rx="3.76" ry="8.53" transform="translate(89.59 101.95) rotate(-88.25)"/>
</svg>